<svg data-name="Group 963" height="88.334" viewBox="0 0 100.767 88.334" width="100.767" xmlns="http://www.w3.org/2000/svg"><g data-name="Typo essec" transform="translate(0 44.113)"><path d="M73.69,61.512a7.588,7.588,0,0,1-2.829.36c-3.12-.028-3.49-.4-3.577-2.476-.011-.294-.013-.8-.013-1.387,0-1.169.013-2.648.013-3.339V53.217H63.269V54.67c0,2.807,0,5.217-.155,6.486-.119.891-.277,1.5-.811,1.6a5.091,5.091,0,0,1-1.084.117c-.364,0-.573.113-.575.33.007.3.308.4.7.4,1.218,0,3.147-.092,3.842-.092,1.794,0,3.842.181,8.452.181.1,0,.2.007.295.007.908,0,1.247-.108,1.434-.865a23.442,23.442,0,0,0,.4-3.4,1.6,1.6,0,0,0-.032-.416.3.3,0,0,0-.3-.22c-.267-.007-.373.2-.422.53-.216,1.242-.561,1.839-1.326,2.19M23.555,63.254a10.629,10.629,0,0,0,4.487.8,8.909,8.909,0,0,0,4.9-1.267,6.228,6.228,0,0,0,2.906-5.379c0-2.928-1.369-5-5.034-7.84l-.855-.642c-2.529-1.924-3.2-2.959-3.2-4.323,0-1.781,1.318-3.047,3.545-3.054a3.77,3.77,0,0,1,3.255,1.46,3.606,3.606,0,0,1,.775,1.96c0,.369.107.635.392.635.338-.013.423-.341.423-1,0-2.376.12-3.249.121-3.661,0-.267-.219-.394-.493-.448a14.778,14.778,0,0,0-4.078-.522c-4.27.008-7.124,2.442-7.131,5.852,0,2.5,1.182,4.666,4.547,7.292l1.4,1.1c2.519,1.949,2.952,3.339,2.955,4.812,0,1.571-1.3,3.387-4,3.392a4.118,4.118,0,0,1-4.28-3.02,6.255,6.255,0,0,1-.274-1.531c0-.234-.028-.6-.39-.6-.347.022-.418.417-.453.873-.03.487-.152,2.319-.152,4-.014.668.126.911.632,1.111m18.319,0h0a10.627,10.627,0,0,0,4.485.8,8.913,8.913,0,0,0,4.9-1.265,6.231,6.231,0,0,0,2.908-5.379c0-2.928-1.372-5-5.037-7.84l-.856-.642c-2.53-1.924-3.2-2.959-3.2-4.323.007-1.781,1.322-3.047,3.546-3.054a3.765,3.765,0,0,1,3.254,1.46,3.606,3.606,0,0,1,.775,1.96c0,.366.108.635.391.635.339-.013.425-.341.425-1,0-2.376.123-3.249.123-3.661,0-.267-.217-.394-.5-.448a14.77,14.77,0,0,0-4.075-.522c-4.269.008-7.127,2.442-7.134,5.85,0,2.5,1.185,4.669,4.549,7.3l1.4,1.1c2.519,1.947,2.954,3.336,2.956,4.81,0,1.571-1.3,3.387-4,3.392a4.116,4.116,0,0,1-4.275-3.02,6.308,6.308,0,0,1-.274-1.531c0-.234-.03-.6-.391-.6-.35.024-.416.419-.451.873-.032.489-.153,2.321-.153,4-.015.668.125.908.629,1.111m-25.5-1.72a7.681,7.681,0,0,1-2.833.361c-3.118-.031-3.485-.4-3.572-2.478-.011-.295-.014-.8-.014-1.387,0-1.17.014-2.647.014-3.34V53.233H5.951V54.69c0,2.8,0,5.216-.152,6.486-.121.888-.279,1.5-.816,1.6A5.067,5.067,0,0,1,3.9,62.9c-.364,0-.573.108-.573.327.006.3.3.4.7.4,1.223,0,3.147-.094,3.844-.094,1.794,0,3.841.183,8.45.183l.3,0c.908,0,1.244-.1,1.434-.861a23.928,23.928,0,0,0,.4-3.4,1.492,1.492,0,0,0-.035-.413.29.29,0,0,0-.3-.222c-.267-.007-.373.2-.419.526-.215,1.243-.563,1.838-1.324,2.194M16.282,50.1H9.966V42.4c.017-.21.026-.21.129-.219.6,0,3.817.061,4.321.119,1.521.193,1.763.521,1.975,1.044a3.261,3.261,0,0,1,.177,1.068c0,.27.086.509.361.511s.363-.254.391-.406c.061-.381.121-1.721.153-2.02.092-1.405.242-1.743.244-1.991,0-.148-.049-.358-.27-.36a2.939,2.939,0,0,0-.5.123,12.594,12.594,0,0,1-1.3.183c-.566.03-6.644.03-7.62.03-.848,0-2.771-.093-4.392-.093-.446,0-.745.058-.756.362,0,.288.275.36.607.36a6.353,6.353,0,0,1,1.166.089c.98.22,1.172.628,1.247,1.66.061.971.061,1.824.061,6.461V50.1H0v1.727H.18v0h16.1ZM57.5,51.8H73.6V50.079H67.284v-7.7c.017-.205.025-.208.13-.217.6,0,3.813.062,4.318.121,1.521.191,1.764.517,1.975,1.044a3.154,3.154,0,0,1,.177,1.065c0,.274.086.513.363.513s.363-.253.39-.405c.063-.384.126-1.722.156-2.02.089-1.409.24-1.744.242-1.993,0-.149-.049-.362-.269-.362a2.51,2.51,0,0,0-.5.126,12.221,12.221,0,0,1-1.306.182c-.565.03-6.641.03-7.617.03-.848,0-2.776-.092-4.389-.092-.449,0-.747.053-.757.36,0,.291.272.362.6.362a6.145,6.145,0,0,1,1.171.091c.976.219,1.168.627,1.242,1.658.063.971.063,1.824.063,6.461v.77l-5.95,0v1.755H57.5Zm25.7,8.9.057-.066L83.2,60.7c2.8,2.427,6.33,3.345,10.522,3.345a17.677,17.677,0,0,0,5.522-.709,1.162,1.162,0,0,0,.847-.939,28.636,28.636,0,0,0,.674-4.077c0-.249-.068-.54-.361-.546s-.406.206-.483.68A4.609,4.609,0,0,1,98.9,60.428c-1.046,1.27-3.3,1.656-4.757,1.653l-.205,0c-5.381-.142-10.058-3.757-10.073-10.743v-.025c0-2.94.585-5.794,2.779-7.805a7.864,7.864,0,0,1,5.676-1.872c2.788,0,5.153.826,6.128,1.865a4.259,4.259,0,0,1,1.168,2.748c0,.416.058.743.392.755.358,0,.43-.337.453-.784.062-.617.031-2.291.091-3.292.06-1.066.155-1.418.155-1.683.007-.231-.179-.429-.535-.453-.905-.088-1.882-.364-3.05-.517a30.066,30.066,0,0,0-4.434-.306c-4.562,0-7.485,1.228-9.7,3.257A12.164,12.164,0,0,0,83.2,60.7M3.329,84.189h97.426V82.333H3.329ZM74.8,69.7a.152.152,0,0,0,.159.142,1.569,1.569,0,0,1,.3.023c.291.075.322.15.351.47.021.3.021.564.021,2.061v.173h-4V72.4c0-1.5,0-1.759.018-2.061.029-.333.071-.423.286-.47a1.174,1.174,0,0,1,.223-.023.155.155,0,0,0,.159-.142c0-.13-.138-.161-.235-.161-.289,0-.9.03-.937.03s-.649-.03-1.079-.03c-.1,0-.234.03-.234.161a.151.151,0,0,0,.158.142,1.639,1.639,0,0,1,.306.023c.289.075.316.15.349.47.019.3.019.564.019,2.061v1.678c0,.918,0,1.673-.05,2.063-.039.284-.089.439-.21.456a1.426,1.426,0,0,1-.272.036.159.159,0,0,0-.158.141c0,.127.136.158.236.158.288,0,.894-.03.935-.03s.648.03,1.174.03c.111,0,.23-.035.235-.158a.157.157,0,0,0-.156-.141,3.518,3.518,0,0,1-.418-.039c-.232-.035-.265-.172-.3-.451-.044-.392-.044-1.147-.044-2.065V73.1h4v.977c0,.918,0,1.673-.047,2.065-.038.281-.09.437-.212.454a1.393,1.393,0,0,1-.27.036.163.163,0,0,0-.161.141c0,.128.139.158.238.158.287,0,.894-.03.934-.03s.651.03,1.178.03c.109,0,.227-.035.236-.158a.156.156,0,0,0-.159-.141,3.579,3.579,0,0,1-.418-.039c-.236-.035-.267-.17-.3-.451-.051-.392-.051-1.147-.051-2.065V72.4c0-1.5,0-1.759.02-2.061.031-.333.07-.423.287-.47a1.143,1.143,0,0,1,.223-.023.154.154,0,0,0,.16-.142c0-.131-.138-.161-.237-.161-.288,0-.9.03-.937.03s-.647-.03-1.077-.03c-.1,0-.236.031-.236.161m12.514,3.525A3.677,3.677,0,0,0,91.1,77.068,3.841,3.841,0,0,0,95,73.078a3.576,3.576,0,0,0-3.838-3.665,3.788,3.788,0,0,0-3.849,3.817m6.606.113c-.007,2.738-1.726,3.186-2.556,3.2-1.668,0-2.971-1.384-2.971-3.577C88.4,70.9,89.536,69.909,91.1,69.9c1.461,0,2.817,1.184,2.821,3.439M82.327,77.068a3.845,3.845,0,0,0,3.9-3.99,3.577,3.577,0,0,0-3.84-3.665,3.788,3.788,0,0,0-3.848,3.817,3.676,3.676,0,0,0,3.79,3.839M82.319,69.9c1.462,0,2.818,1.184,2.822,3.439-.007,2.738-1.723,3.186-2.558,3.2-1.663,0-2.963-1.384-2.97-3.577.009-2.06,1.149-3.052,2.706-3.058m14.527,6.24c-.039.281-.092.437-.211.451a1.3,1.3,0,0,1-.273.039.159.159,0,0,0-.158.139c0,.13.139.16.233.16.149,0,.361-.011.553-.02s.353-.01.384-.01c.276,0,.572.01.972.03s.9.028,1.59.028a1.181,1.181,0,0,0,.124,0c.391,0,.508-.1.555-.32a5.938,5.938,0,0,0,.151-.979.338.338,0,0,0-.019-.14.129.129,0,0,0-.126-.086.185.185,0,0,0-.168.2,1.24,1.24,0,0,1-.231.531c-.189.236-.582.257-1.092.255-.745,0-.968-.07-1.086-.2-.13-.107-.192-.732-.187-2.13V72.4c0-1.5,0-1.759.02-2.061.03-.333.066-.418.3-.47a2.168,2.168,0,0,1,.3-.023.16.16,0,0,0,.164-.142c0-.13-.139-.161-.238-.161-.288,0-.988.03-1.033.03s-.646-.03-1.076-.03c-.1,0-.234.03-.238.161a.154.154,0,0,0,.16.142,1.669,1.669,0,0,1,.306.023c.286.075.316.15.347.47.02.3.02.564.02,2.061v1.678c0,.918,0,1.673-.046,2.065m-31-6.2a3.106,3.106,0,0,1,1.856.525,1.233,1.233,0,0,1,.373.912.633.633,0,0,0,.019.175.144.144,0,0,0,.143.107c.145-.013.16-.146.166-.276.011-.152.011-.674.031-.986.019-.344.045-.445.05-.541a.2.2,0,0,0-.2-.189,7.125,7.125,0,0,1-.97-.143,8.693,8.693,0,0,0-1.4-.113,3.931,3.931,0,0,0-2.97,1.045,3.874,3.874,0,0,0-1.095,2.663,3.732,3.732,0,0,0,1.183,2.891,4.487,4.487,0,0,0,3.205,1.056,5.458,5.458,0,0,0,1.75-.228.412.412,0,0,0,.3-.33,9.709,9.709,0,0,0,.212-1.246c0-.078,0-.206-.15-.226-.114,0-.167.117-.173.212a1.785,1.785,0,0,1-.332.758,2.132,2.132,0,0,1-1.607.454,3.369,3.369,0,0,1-3.365-3.415,3.119,3.119,0,0,1,.836-2.433,2.838,2.838,0,0,1,2.139-.673M18.159,71.215a2.638,2.638,0,0,0,1.271,2.137l.432.352c.818.682,1.064,1.026,1.068,1.656a1.194,1.194,0,0,1-1.285,1.189,1.218,1.218,0,0,1-1.332-.909,1.5,1.5,0,0,1-.029-.338.243.243,0,0,0-.023-.12.137.137,0,0,0-.126-.068c-.134.011-.151.134-.16.23-.009.153-.047.54-.047,1.021-.015.242.032.373.189.436a2.972,2.972,0,0,0,1.319.269,2.6,2.6,0,0,0,1.49-.417A2.076,2.076,0,0,0,21.775,75c0-.788-.292-1.418-1.429-2.312l-.267-.207c-.916-.721-1.129-1.028-1.131-1.541a1,1,0,0,1,1.09-1.024c.852,0,1.068.376,1.121.464a1.725,1.725,0,0,1,.116.448c0,.061.025.194.158.2.156-.031.145-.158.15-.3,0-.652.036-.952.036-1.015a.13.13,0,0,0-.051-.116.184.184,0,0,0-.126-.035,1.6,1.6,0,0,1-.318-.043,3.79,3.79,0,0,0-.906-.1,1.839,1.839,0,0,0-2.06,1.8m5.959,4.926c-.04.284-.089.439-.212.456a1.428,1.428,0,0,1-.269.036.159.159,0,0,0-.16.141c0,.127.137.158.235.158.29,0,.9-.03.936-.03s.651.03,1.177.03c.109,0,.23-.036.236-.158a.159.159,0,0,0-.16-.141,3.579,3.579,0,0,1-.418-.039c-.235-.035-.265-.172-.3-.451-.044-.392-.046-1.147-.046-2.065V72.4c0-1.5,0-1.759.021-2.061.028-.333.07-.423.285-.47a1.16,1.16,0,0,1,.224-.023.152.152,0,0,0,.158-.142c0-.13-.137-.161-.235-.161-.289,0-.894.03-.937.03s-.646-.03-.965-.03c-.1,0-.234.031-.234.161a.151.151,0,0,0,.157.142,1.159,1.159,0,0,1,.275.031c.17.044.241.145.265.462.02.3.02.564.02,2.061v1.678c0,.918,0,1.673-.047,2.063m-13.1.222a3,3,0,0,0,2.025.705h.007a2.883,2.883,0,0,0,2.016-.73,3.785,3.785,0,0,0,.906-2.918V72.4c0-1.5,0-1.759.02-2.061.03-.333.071-.411.29-.47a1.563,1.563,0,0,1,.22-.026.15.15,0,0,0,.16-.139c0-.13-.136-.161-.235-.161-.29,0-.744.031-.8.03s-.583-.03-1.013-.03c-.1,0-.234.031-.236.161a.149.149,0,0,0,.161.139,1.927,1.927,0,0,1,.3.026c.288.075.316.15.35.47.018.3.018.564.018,2.061v1.193a3.656,3.656,0,0,1-.534,2.288,1.941,1.941,0,0,1-1.436.657,1.8,1.8,0,0,1-1.386-.5,2.854,2.854,0,0,1-.689-2.3V72.4c0-1.5,0-1.759.019-2.061.028-.333.072-.428.281-.47a1.738,1.738,0,0,1,.227-.026.15.15,0,0,0,.159-.139c0-.13-.138-.161-.237-.161-.289,0-.868.031-.945.03s-.667-.03-1.1-.03c-.1,0-.234.031-.236.161a.149.149,0,0,0,.162.139,1.9,1.9,0,0,1,.3.026c.287.075.318.15.348.47.021.3.021.564.021,2.061v1.392a3.23,3.23,0,0,0,.855,2.571m17.808-.813L28.711,71.2c.426.475,1.376,1.524,2.343,2.567,1.018,1.094,2.388,2.492,2.5,2.6.51.5.594.614.752.634h.011c.068,0,.139-.092.139-.175a5,5,0,0,0,.019-.586l.021-5.6c.007-.587.028-.712.286-.771a.74.74,0,0,1,.212-.023c.084,0,.187-.045.188-.151-.021-.157-.162-.15-.255-.152-.4,0-.716.031-.812.03s-.56-.03-.993-.03c-.1.006-.247-.013-.274.152a.142.142,0,0,0,.034.1.167.167,0,0,0,.127.047,2.225,2.225,0,0,1,.447.044c.241.065.292.2.308.829l.1,4.636c-.415-.447-1.318-1.449-2.144-2.335-1.471-1.573-2.9-3.115-3.035-3.272-.11-.092-.221-.3-.4-.334a.176.176,0,0,0-.161.161,2.1,2.1,0,0,0-.026.4l-.009,5.472c0,.882-.068,1.107-.227,1.137a1.3,1.3,0,0,1-.368.053.154.154,0,0,0-.16.139c0,.145.153.16.235.16.433,0,.84-.03.915-.03s.47.03,1.013.03c.11,0,.247-.018.256-.16a.154.154,0,0,0-.159-.139,2.052,2.052,0,0,1-.457-.053c-.193-.054-.289-.242-.309-1.031M3.469,69.843a1.959,1.959,0,0,1,.306.026c.288.075.316.15.348.47.017.3.017.564.017,2.06v1.679c0,.918,0,1.673-.046,2.063-.035.284-.089.439-.211.456a1.441,1.441,0,0,1-.268.036.159.159,0,0,0-.16.141c0,.127.138.158.236.158.148,0,.369-.02.554-.02.2-.01.363-.01.381-.01.033,0,.3.01.577.03s.584.028.7.028a2.161,2.161,0,0,0,.933-4.214,2.367,2.367,0,0,0,.83-1.683c0-.513-.389-1.518-2-1.52-.443,0-.817.03-1.041.03-.04,0-.647-.03-1.081-.03-.1,0-.233.03-.234.161a.148.148,0,0,0,.159.139m3.938,5.373a1.188,1.188,0,0,1-1.264,1.273,2.1,2.1,0,0,1-.8-.135c-.266-.135-.241-.19-.279-.674-.009-.132-.009-1.324-.009-2.056v-.531c.166,0,.606,0,.706.018a1.5,1.5,0,0,1,.762.264,2.212,2.212,0,0,1,.887,1.842M5.052,72.609V70.044s.011-.012.05-.02a1.969,1.969,0,0,1,.44-.044c.871,0,1.2.784,1.207,1.561a1.38,1.38,0,0,1-.323.907c-.188.207-.263.214-.809.219a3.406,3.406,0,0,1-.567-.035h0Zm31.761-2.763a1.639,1.639,0,0,1,.306.023c.288.075.317.15.349.47.018.3.018.564.018,2.061v1.678c0,.918,0,1.673-.047,2.065-.038.281-.089.437-.211.454a1.392,1.392,0,0,1-.27.036.159.159,0,0,0-.158.139c0,.13.136.16.234.16.15,0,.37-.02.556-.02s.363-.01.381-.01c.141,0,.369.01.739.03s.9.028,1.62.028a1.181,1.181,0,0,0,.121,0c.274,0,.424-.065.476-.313.051-.22.126-.853.128-.947a.474.474,0,0,0-.011-.118.136.136,0,0,0-.129-.108c-.119,0-.157.115-.17.213-.07.384-.161.529-.381.625a2.664,2.664,0,0,1-.884.1c-.945-.026-.971-.063-1.025-.7,0-.062,0-.232,0-.437,0-.413,0-.977,0-1.194v-.821c.2,0,1.1.021,1.341.045.351.042.387.159.427.276a.889.889,0,0,1,.034.291.162.162,0,0,0,.148.169.147.147,0,0,0,.141-.126.654.654,0,0,0,.011-.142c0-.055.02-.414.039-.6.026-.313.073-.457.076-.544a.189.189,0,0,0-.03-.106.134.134,0,0,0-.1-.055c-.113.019-.137.084-.207.153-.053.062-.162.088-.393.107-.2.019-1.279.019-1.487.019V70.084c.19,0,1.136.011,1.274.029.513.066.55.147.61.277a.935.935,0,0,1,.052.309c0,.079.036.205.16.205.132-.022.13-.121.148-.169.021-.13.041-.547.049-.638.029-.265.074-.356.078-.457,0-.047,0-.148-.124-.169a.523.523,0,0,0-.147.045,2.544,2.544,0,0,1-.4.045c-.215.011-2.121.011-2.185.011l-.386-.02c-.215-.01-.473-.01-.694-.01-.1,0-.231.03-.235.161a.154.154,0,0,0,.159.142" data-name="Path 1" fill="#0a0a0a" transform="translate(0 -39.968)"></path><path d="M16.475,68.448a2.64,2.64,0,0,0,1.271,2.137l.432.352c.818.682,1.064,1.026,1.068,1.656a1.2,1.2,0,0,1-1.285,1.189,1.218,1.218,0,0,1-1.332-.909,1.5,1.5,0,0,1-.029-.338.243.243,0,0,0-.023-.12.134.134,0,0,0-.126-.068c-.134.011-.151.132-.16.228-.009.155-.049.541-.049,1.022-.014.242.033.373.19.436a2.969,2.969,0,0,0,1.319.269,2.612,2.612,0,0,0,1.49-.417,2.076,2.076,0,0,0,.849-1.654c0-.788-.292-1.418-1.429-2.312l-.267-.208c-.916-.721-1.129-1.028-1.131-1.541a1,1,0,0,1,1.09-1.025c.852,0,1.068.377,1.121.465a1.725,1.725,0,0,1,.116.448c0,.061.025.193.158.2.156-.031.145-.158.15-.3,0-.652.036-.952.036-1.015a.132.132,0,0,0-.051-.117.189.189,0,0,0-.126-.034,1.694,1.694,0,0,1-.318-.043,3.74,3.74,0,0,0-.906-.1,1.839,1.839,0,0,0-2.06,1.8" data-name="Path 2" fill="#0a0a0a" transform="translate(1.684 -37.201)"></path><path d="M43.788,68.448a2.637,2.637,0,0,0,1.271,2.137l.429.352c.821.682,1.067,1.026,1.071,1.656a1.194,1.194,0,0,1-1.286,1.189,1.22,1.22,0,0,1-1.332-.909,1.553,1.553,0,0,1-.028-.338.232.232,0,0,0-.023-.12.136.136,0,0,0-.127-.068c-.131.011-.149.132-.158.228-.011.155-.051.541-.051,1.022-.013.242.033.373.191.436a2.963,2.963,0,0,0,1.319.269,2.617,2.617,0,0,0,1.49-.417A2.076,2.076,0,0,0,47.4,72.23c0-.788-.291-1.418-1.427-2.312l-.267-.208c-.916-.721-1.13-1.028-1.132-1.541a1,1,0,0,1,1.09-1.025c.852,0,1.068.377,1.122.465a1.769,1.769,0,0,1,.115.448c0,.061.025.193.158.2.156-.031.145-.158.149-.3,0-.652.038-.952.038-1.015a.133.133,0,0,0-.049-.117.193.193,0,0,0-.127-.034,1.691,1.691,0,0,1-.319-.043,3.727,3.727,0,0,0-.9-.1,1.838,1.838,0,0,0-2.061,1.8" data-name="Path 3" fill="#0a0a0a" transform="translate(4.517 -37.201)"></path><path d="M51.6,68.448a2.64,2.64,0,0,0,1.271,2.137l.429.352c.82.682,1.067,1.026,1.072,1.656a1.2,1.2,0,0,1-1.284,1.189,1.219,1.219,0,0,1-1.334-.909,1.5,1.5,0,0,1-.029-.338.253.253,0,0,0-.021-.12.139.139,0,0,0-.127-.068c-.135.011-.153.132-.16.228-.009.155-.05.541-.05,1.022-.013.242.033.373.191.436a2.968,2.968,0,0,0,1.318.269,2.6,2.6,0,0,0,1.489-.417,2.065,2.065,0,0,0,.848-1.654c0-.788-.289-1.418-1.426-2.312l-.268-.208c-.917-.721-1.131-1.028-1.131-1.541a1,1,0,0,1,1.093-1.025c.85,0,1.066.377,1.118.465a1.642,1.642,0,0,1,.117.448c0,.061.025.193.158.2.156-.031.142-.158.15-.3,0-.652.039-.952.039-1.015a.138.138,0,0,0-.053-.117.183.183,0,0,0-.125-.034,1.68,1.68,0,0,1-.319-.043,3.743,3.743,0,0,0-.907-.1,1.838,1.838,0,0,0-2.058,1.8" data-name="Path 4" fill="#0a0a0a" transform="translate(5.327 -37.201)"></path><path d="M38.822,68.448a2.639,2.639,0,0,0,1.273,2.137l.429.352c.821.682,1.066,1.026,1.072,1.656a1.2,1.2,0,0,1-1.286,1.189,1.22,1.22,0,0,1-1.333-.909,1.5,1.5,0,0,1-.029-.338.242.242,0,0,0-.022-.12.134.134,0,0,0-.126-.068c-.132.011-.152.132-.161.228-.008.155-.049.541-.049,1.022-.013.242.034.373.191.436A2.971,2.971,0,0,0,40.1,74.3a2.607,2.607,0,0,0,1.49-.417,2.078,2.078,0,0,0,.85-1.654c0-.788-.292-1.418-1.43-2.312l-.267-.208c-.916-.721-1.13-1.028-1.132-1.541A1,1,0,0,1,40.7,67.144c.85,0,1.068.377,1.121.465a1.724,1.724,0,0,1,.115.448c0,.061.025.193.158.2.156-.031.143-.158.149-.3,0-.652.039-.952.039-1.015a.138.138,0,0,0-.051-.117.19.19,0,0,0-.127-.034,1.694,1.694,0,0,1-.318-.043,3.724,3.724,0,0,0-.905-.1,1.839,1.839,0,0,0-2.061,1.8" data-name="Path 5" fill="#0a0a0a" id="Path_5" transform="translate(4.002 -37.201)"></path></g><g data-name="blason seul" transform="translate(39.877)"><path d="M60.458,26.633V13.983H44.652l3.2,1.124v1.161c0,.552-.014,1.728-.014,2.661,0,.467,0,.873.014,1.1.067,1.66.36,1.952,2.849,1.977a6.154,6.154,0,0,0,2.256-.286c.609-.286.883-.757,1.056-1.749.039-.262.12-.426.334-.421a.231.231,0,0,1,.236.177,1.175,1.175,0,0,1,.029.33,19.248,19.248,0,0,1-.32,2.716c-.149.6-.418.684-1.142.684h-.238c-3.671,0-5.305-.147-6.735-.147-.556,0-2.089.074-3.067.074-.313,0-.55-.077-.554-.315,0-.175.168-.263.458-.263a3.955,3.955,0,0,0,.863-.094c.426-.082.553-.572.649-1.279.123-1.012.123-2.936.123-5.171V13.983H36.13v12.65a.727.727,0,0,0,.344.717L47.8,34.066h0a.818.818,0,0,0,1,0h0L60.115,27.35a.727.727,0,0,0,.343-.717" data-name="Path 6" fill="#0a0a0a" transform="translate(-36.13 1.451)"></path><path d="M60.034,0H36.553a.42.42,0,0,0-.422.422V14.053h8.521V13.44c0-3.7,0-4.377-.047-5.15-.061-.823-.213-1.149-.994-1.324a5.071,5.071,0,0,0-.933-.071c-.264,0-.478-.057-.482-.288s.248-.288.6-.288c1.292,0,2.825.074,3.5.074.776,0,5.623,0,6.074-.024a10.339,10.339,0,0,0,1.039-.145,2.273,2.273,0,0,1,.4-.1c.18,0,.216.17.216.288,0,.2-.12.466-.194,1.586-.026.241-.072,1.308-.124,1.61-.021.123-.086.323-.309.323s-.288-.191-.288-.408a2.543,2.543,0,0,0-.142-.85c-.17-.417-.36-.679-1.571-.833-.406-.046-2.967-.095-3.447-.095-.083.009-.089.009-.1.175v6.132H60.459V.422A.423.423,0,0,0,60.034,0" data-name="Path 7" fill="#0a0a0a" transform="translate(-36.13 0)"></path></g></svg>